<svg xmlns="http://www.w3.org/2000/svg" width="72" height="78" viewBox="0 0 72 78" fill="none">
<g clip-path="url(#clip0_316_86)">
<path d="M72 69.3333C72 71.6319 71.1571 73.8363 69.6569 75.4616C68.1566 77.0869 66.1217 78 64 78H8C5.87827 78 3.84344 77.0869 2.34315 75.4616C0.842855 73.8363 0 71.6319 0 69.3333V8.66667C0 6.36812 0.842855 4.16372 2.34315 2.53841C3.84344 0.913093 5.87827 0 8 0L64 0C66.1217 0 68.1566 0.913093 69.6569 2.53841C71.1571 4.16372 72 6.36812 72 8.66667V69.3333Z" fill="#3B88C3"/>
<path d="M51 15.1666C49.6739 15.1666 48.4021 15.7373 47.4645 16.7531C46.5268 17.769 46 19.1467 46 20.5833V32.5H26V20.5833C26 19.1467 25.4732 17.769 24.5355 16.7531C23.5979 15.7373 22.3261 15.1666 21 15.1666C19.6739 15.1666 18.4021 15.7373 17.4645 16.7531C16.5268 17.769 16 19.1467 16 20.5833V57.4166C16 58.8532 16.5268 60.231 17.4645 61.2468C18.4021 62.2626 19.6739 62.8333 21 62.8333C22.3261 62.8333 23.5979 62.2626 24.5355 61.2468C25.4732 60.231 26 58.8532 26 57.4166V43.3333H46V57.4166C46 58.8532 46.5268 60.231 47.4645 61.2468C48.4021 62.2626 49.6739 62.8333 51 62.8333C52.3261 62.8333 53.5979 62.2626 54.5355 61.2468C55.4732 60.231 56 58.8532 56 57.4166V20.5833C56 19.1467 55.4732 17.769 54.5355 16.7531C53.5979 15.7373 52.3261 15.1666 51 15.1666Z" fill="white"/>
</g>
<defs>
<clipPath id="clip0_316_86">
<rect width="72" height="78" fill="white"/>
</clipPath>
</defs>
</svg>